<svg xmlns="http://www.w3.org/2000/svg" viewBox="0 0 216 152"><defs><style>.cls-1{fill:#8ca7d4;}</style></defs><title>Background cloud_1</title><g id="Layer_2" data-name="Layer 2"><g id="Layer_1-2" data-name="Layer 1"><path class="cls-1" d="M213.36,62.11l-.12-.42c-.07-.21-.13-.44-.2-.65a62.45,62.45,0,0,0-3.38-8.34c-.72-1.48-1.51-2.92-2.35-4.33a62.74,62.74,0,0,0-3.9-5.86c-.45-.59-.91-1.17-1.37-1.74s-.86-1.06-1.3-1.57l-.28-.33-.85-1a66.58,66.58,0,0,0-14.78-12.22l-.38-.22-1-.6c-.32-.18-.63-.37-.95-.54l-.27-.15L181.8,24a67.29,67.29,0,0,0-18-6.62l-1.38-.29c-1.4-.27-2.82-.48-4.26-.66l-1.44-.17-.19,0c-1.26-.12-2.52-.23-3.8-.28h-.35l-1.45,0-.95,0c-1.18,0-2.34,0-3.51.07a68.51,68.51,0,0,0-9.14,1,65.37,65.37,0,0,0-6.47,1.48,24.81,24.81,0,0,1-5.9.91c-.56,0-1.12,0-1.67,0l-.49,0h0c-.42,0-.83-.05-1.24-.09a25.77,25.77,0,0,1-3.9-.73,24.29,24.29,0,0,1-6.36-2.71,23.07,23.07,0,0,1-3.43-2.57l-.38-.33A47.37,47.37,0,0,0,99.78,7L99.62,7c-.44-.27-.89-.53-1.34-.78A48.07,48.07,0,0,0,76,0c-1.37,0-2.76,0-4.17,0-.88.05-1.76.13-2.63.23L68.13.42A47.78,47.78,0,0,0,41.46,13.16a48.36,48.36,0,0,0-4,4.27c-.32.39-.63.79-.94,1.2l-.63.84c-.38.52-.74,1.05-1.1,1.59-.8,1.21-1.54,2.45-2.22,3.73-.21.4-.42.79-.61,1.19q-.45.89-.84,1.8c-.2.45-.4.91-.58,1.37s-.27.69-.39,1-.36,1-.52,1.46a.65.65,0,0,0,0,.13,43.32,43.32,0,0,0-1.7,7.13,44.38,44.38,0,0,0-.45,7.75l0,1.05a13.53,13.53,0,0,1-.26,3.55,14,14,0,0,1-.91,2.84,14.62,14.62,0,0,1-2.3,3.64,15.44,15.44,0,0,1-2.63,2.4c-.52.37-1,.77-1.53,1.16-.22.17-.45.33-.67.51L19,62c-.21.17-.4.35-.6.51A51.84,51.84,0,0,0,8.33,73.64a50.4,50.4,0,0,0-4.36,8c-.1.23-.18.47-.28.7l-.3.74-.07.19c-.31.79-.59,1.59-.86,2.41s-.57,1.82-.81,2.75c-.14.53-.3,1.06-.42,1.6-.17.76-.31,1.53-.45,2.31-.05.27-.11.55-.16.82s-.1.81-.16,1.21c0,.13,0,.27-.05.4-.12,1-.22,2-.29,3a49.65,49.65,0,0,0-.09,5,46,46,0,0,0,2.05,11.92l.1.27c.15.49.32,1,.49,1.47l.18.51c.08.23.18.46.27.69.53,1.37,1.11,2.72,1.76,4L5,122c.3.59.6,1.18.91,1.76.47.85,1,1.69,1.48,2.51A51.69,51.69,0,0,0,11.5,132c.24.3.49.6.75.89a1.13,1.13,0,0,0,.1.13A55.81,55.81,0,0,0,32.6,147.84a54.1,54.1,0,0,0,7.8,2.61c.67.17,1.35.33,2,.47L43,151c.62.12,1.25.24,1.88.34l.63.09c.7.1,1.4.19,2.11.26h0c1.26.12,2.53.22,3.81.25,1.55,0,3.09,0,4.6-.07.67,0,1.34-.1,2-.16,1.63-.15,3.24-.37,4.82-.66a1.19,1.19,0,0,1,.26-.05c1-.19,1.95-.41,2.91-.64l1.54-.4a53.46,53.46,0,0,0,17.58-8.6,35.29,35.29,0,0,1,7.43-4.22c.53-.23,1.06-.44,1.6-.64l.22-.07c.57-.21,1.14-.4,1.72-.58a35.53,35.53,0,0,1,6-1.27h0c.47-.06.93-.09,1.4-.13s.91-.08,1.36-.09.77,0,1.16,0a34.19,34.19,0,0,1,5.15.34h.08l.67.11h0a32.79,32.79,0,0,1,7.31,2.11l.79.34c.16.07.32.12.47.2.57.26,1.16.5,1.74.75l.67.29a68.36,68.36,0,0,0,26.55,5.34c1.25,0,2.48,0,3.7-.1a68.81,68.81,0,0,0,8.68-1l.44-.07.5-.09h0A67.84,67.84,0,0,0,192.11,129a65.06,65.06,0,0,0,10.94-11.19,63.31,63.31,0,0,0,5.13-7.81c.45-.81.87-1.64,1.29-2.47A62.07,62.07,0,0,0,216,79,60.87,60.87,0,0,0,213.36,62.11ZM83.43,62a1.22,1.22,0,0,0-.06-.42A1.22,1.22,0,0,1,83.43,62Z"/></g></g></svg>