<?xml version="1.0"?>
<svg xmlns="http://www.w3.org/2000/svg" xmlns:xlink="http://www.w3.org/1999/xlink" version="1.1" id="Capa_1" x="0px" y="0px" width="512px" height="512px" viewBox="0 0 314.065 314.064" style="enable-background:new 0 0 314.065 314.064;" xml:space="preserve" class=""><g><g>
	<g id="_x33_58._Pause">
		<g>
			<path d="M125.632,109.931c-8.666,0-15.701,7.027-15.701,15.701v62.793c0,8.668,7.035,15.701,15.701,15.701     s15.701-7.033,15.701-15.701v-62.793C141.333,116.95,134.298,109.931,125.632,109.931z M293.002,78.529     C249.646,3.434,153.618-22.298,78.529,21.066C3.434,64.417-22.298,160.44,21.066,235.532     c43.35,75.095,139.375,100.83,214.465,57.47C310.627,249.638,336.363,153.618,293.002,78.529z M219.834,265.8     c-60.067,34.692-136.894,14.106-171.576-45.973C13.568,159.76,34.161,82.933,94.23,48.259     c60.071-34.69,136.894-14.106,171.578,45.971C300.493,154.305,279.906,231.115,219.834,265.8z M188.432,109.931     c-8.664,0-15.701,7.027-15.701,15.701v62.793c0,8.668,7.037,15.709,15.701,15.709c8.668,0,15.701-7.033,15.701-15.709v-62.793     C204.133,116.95,197.1,109.931,188.432,109.931z" data-original="#000000" class="active-path" data-old_color="#FDFBFB" fill="#FFFEFE"/>
		</g>
	</g>
</g></g> </svg>
