<svg xmlns="http://www.w3.org/2000/svg" viewBox="0 0 53.86 56"><defs><style>.cls-1{fill:#61c3e5;fill-rule:evenodd;}</style></defs><title>Reset Hover</title><g id="Layer_2" data-name="Layer 2"><g id="Layer_1-2" data-name="Layer 1"><path class="cls-1" d="M53.77,36.49a5.35,5.35,0,0,0-4.3-4.21c-2.7-.46-4.62.93-5.83,3.5q-.28.61-.63,1.2A17.5,17.5,0,1,1,28,10.5a17.28,17.28,0,0,1,6.68,1.35L30.39,15.2a3.51,3.51,0,0,0-1.16,3.9,3.59,3.59,0,0,0,2.68,2.3l15.2,3.28a2.72,2.72,0,0,0,.63.08,3.5,3.5,0,0,0,3.61-3.39l.49-15.65a3.5,3.5,0,0,0-2.25-3.39,3.6,3.6,0,0,0-3.49.59L43.66,4.83A28,28,0,1,0,53,40.56l.37-.8A5.36,5.36,0,0,0,53.77,36.49Z"/></g></g></svg>