<svg xmlns="http://www.w3.org/2000/svg" viewBox="0 0 56 56"><defs><style>.cls-1{fill:#61c3e5;}</style></defs><title>Save Hover</title><g id="Layer_2" data-name="Layer 2"><g id="Layer_1-2" data-name="Layer 1"><path class="cls-1" d="M53.14,14,42.05,2.86A9.76,9.76,0,0,0,35.15,0H4A4,4,0,0,0,0,4V52a4,4,0,0,0,4,4H52a4,4,0,0,0,4-4V20.85A9.76,9.76,0,0,0,53.14,14ZM9,9.27a2,2,0,0,1,2-2H35a2,2,0,0,1,2,2v15a2,2,0,0,1-2,2H11a2,2,0,0,1-2-2ZM47,47.1a2,2,0,0,1-2,2H11a2,2,0,0,1-2-2v-12a2,2,0,0,1,2-2H45a2,2,0,0,1,2,2Z"/><rect class="cls-1" x="25.53" y="10.9" width="8" height="12" rx="2.87"/><rect class="cls-1" x="17.21" y="29.79" width="4" height="16" rx="1.86" transform="translate(57 18.59) rotate(90)"/><rect class="cls-1" x="25.21" y="28.19" width="4" height="32" rx="1.86" transform="translate(71.39 16.98) rotate(90)"/></g></g></svg>