<?xml version="1.0" encoding="UTF-8"?>
<svg width="32px" height="32px" viewBox="0 0 32 32" version="1.1" xmlns="http://www.w3.org/2000/svg" xmlns:xlink="http://www.w3.org/1999/xlink">
    <!-- Generator: Sketch 54.1 (76490) - https://sketchapp.com -->
    <title>Group 10</title>
    <desc>Created with Sketch.</desc>
    <defs>
        <polygon id="path-1" points="0 0 31.9999429 0 31.9999429 31.9997714 0 31.9997714"></polygon>
    </defs>
    <g id="Web-UI" stroke="none" stroke-width="1" fill="none" fill-rule="evenodd">
        <g id="Landing-Page-Playing" transform="translate(-1456.000000, -240.000000)">
            <g id="Group-10" transform="translate(1456.000000, 240.000000)">
                <g id="Group-3">
                    <mask id="mask-2" fill="white">
                        <use xlink:href="#path-1"></use>
                    </mask>
                    <g id="Clip-2"></g>
                    <path d="M26.8570857,26.9146286 C26.8570857,27.5432 26.3428,28.0574857 25.7142286,28.0574857 L6.28565714,28.0574857 C5.65708571,28.0574857 5.1428,27.5432 5.1428,26.9146286 L5.1428,20.0574857 C5.1428,19.4289143 5.65708571,18.9146286 6.28565714,18.9146286 L25.7142286,18.9146286 C26.3428,18.9146286 26.8570857,19.4289143 26.8570857,20.0574857 L26.8570857,26.9146286 Z M5.1428,5.29634286 C5.1428,4.66777143 5.65708571,4.15348571 6.28565714,4.15348571 L19.9999429,4.15348571 C20.6285143,4.15348571 21.1428,4.66777143 21.1428,5.29634286 L21.1428,13.8677714 C21.1428,14.4963429 20.6285143,15.0106286 19.9999429,15.0106286 L6.28565714,15.0106286 C5.65708571,15.0106286 5.1428,14.4963429 5.1428,13.8677714 L5.1428,5.29634286 Z M30.3662286,7.96948571 L24.0308,1.63405714 C22.9845143,0.587771429 21.5650857,-0.000228571429 20.0856571,-0.000228571429 L2.28565714,-0.000228571429 C1.02337143,-0.000228571429 -5.71428571e-05,1.0232 -5.71428571e-05,2.28548571 L-5.71428571e-05,29.7140571 C-5.71428571e-05,30.9763429 1.02337143,31.9997714 2.28565714,31.9997714 L29.7142286,31.9997714 C30.9765143,31.9997714 31.9999429,30.9763429 31.9999429,29.7140571 L31.9999429,11.9146286 C31.9999429,10.4346286 31.4125143,9.01577143 30.3662286,7.96948571 L30.3662286,7.96948571 Z" id="Fill-1" fill="#A3D9F0" mask="url(#mask-2)"></path>
                </g>
                <path d="M17.5189143,13.0870286 L16.2309143,13.0870286 C15.3280571,13.0870286 14.5892,12.3481714 14.5892,11.4453143 L14.5892,7.8716 C14.5892,6.96874286 15.3280571,6.22988571 16.2309143,6.22988571 L17.5189143,6.22988571 C18.4217714,6.22988571 19.1606286,6.96874286 19.1606286,7.8716 L19.1606286,11.4453143 C19.1606286,12.3481714 18.4217714,13.0870286 17.5189143,13.0870286" id="Fill-4" fill="#A3D9F0"></path>
                <path d="M6.40314286,21.6724571 L6.40314286,21.5170286 C6.40314286,20.9313143 6.88257143,20.4518857 7.46828571,20.4518857 L14.4808571,20.4518857 C15.0671429,20.4518857 15.546,20.9313143 15.546,21.5170286 L15.546,21.6724571 C15.546,22.2581714 15.0671429,22.7376 14.4808571,22.7376 L7.46828571,22.7376 C6.88257143,22.7376 6.40314286,22.2581714 6.40314286,21.6724571" id="Fill-6" fill="#A3D9F0"></path>
                <path d="M6.40314286,25.3270286 L6.40314286,25.1716 C6.40314286,24.5853143 6.88257143,24.1064571 7.46828571,24.1064571 L23.6237143,24.1064571 C24.21,24.1064571 24.6888571,24.5853143 24.6888571,25.1716 L24.6888571,25.3270286 C24.6888571,25.9127429 24.21,26.3921714 23.6237143,26.3921714 L7.46828571,26.3921714 C6.88257143,26.3921714 6.40314286,25.9127429 6.40314286,25.3270286" id="Fill-8" fill="#A3D9F0"></path>
            </g>
        </g>
    </g>
</svg>