<?xml version="1.0" encoding="UTF-8"?>
<svg width="16px" height="16px" viewBox="0 0 16 16" version="1.1" xmlns="http://www.w3.org/2000/svg" xmlns:xlink="http://www.w3.org/1999/xlink">
    <!-- Generator: Sketch 54.1 (76490) - https://sketchapp.com -->
    <title>share</title>
    <desc>Created with Sketch.</desc>
    <g id="Web-UI" stroke="none" stroke-width="1" fill="none" fill-rule="evenodd">
        <g id="Landing-Page_Relax" transform="translate(-1476.000000, -388.000000)" fill="#FFFFFF">
            <g id="share" transform="translate(1476.000000, 388.000000)">
                <path d="M13.0578078,10.0180884 C12.1235873,10.0180884 11.2995474,10.4528505 10.7611737,11.11863 L5.76763229,8.62413551 C5.83300526,8.38596752 5.87999208,8.13988389 5.87999208,7.88089575 C5.87999208,7.59895887 5.82418672,7.33351847 5.74631798,7.07522877 L10.7178301,4.5922419 C11.2532415,5.28815405 12.0985957,5.74300468 13.0585229,5.74300468 C14.6846073,5.74300468 16,4.4581082 16,2.87115312 C16.000034,1.28562818 14.6846073,0 13.0585569,0 C11.4361496,0 10.1192929,1.28562818 10.1192929,2.87111986 C10.1192929,3.1308397 10.1663138,3.37762177 10.2324018,3.61652146 L5.23957533,6.11101595 C4.70048668,5.44453805 3.87494866,5.00834575 2.939264,5.00834575 C1.31464359,5.00834575 0,6.29467237 0,7.88089575 C0,9.46711913 1.31467764,10.7527473 2.939264,10.7527473 C3.90065522,10.7527473 4.7452944,10.2964665 5.28288492,9.59985595 L10.2521839,12.0828428 C10.1743151,12.3404008 10.1177948,12.6080031 10.1177948,12.8906716 C10.1177948,14.476895 11.4346515,15.7625232 13.0570588,15.7625232 C14.6831433,15.7625232 15.9985359,14.476895 15.9985359,12.8906716 C15.999285,11.3030181 14.6838923,10.0180884 13.0578078,10.0180884 Z" id="Path" fill-rule="nonzero"></path>
                <polygon id="Rectangle" transform="translate(7.907275, 5.218871) rotate(-27.000000) translate(-7.907275, -5.218871) " points="4.83347489 4.21887111 10.9657697 4.28833545 10.9810754 6.21887111 4.84878055 6.14940677"></polygon>
                <polygon id="Rectangle-Copy" transform="translate(7.907275, 10.641439) rotate(27.000000) translate(-7.907275, -10.641439) " points="4.84878055 9.71090371 10.9810754 9.64143937 10.9657697 11.571975 4.83347489 11.6414394"></polygon>
            </g>
        </g>
    </g>
</svg>