<?xml version="1.0" encoding="utf-8"?>
<!-- Generator: Adobe Illustrator 23.0.1, SVG Export Plug-In . SVG Version: 6.00 Build 0)  -->
<svg version="1.1" id="Layer_1" xmlns="http://www.w3.org/2000/svg" xmlns:xlink="http://www.w3.org/1999/xlink" x="0px" y="0px"
	 viewBox="0 0 265 252" style="enable-background:new 0 0 265 252;" xml:space="preserve">
<style type="text/css">
	.st0{fill:#1D1D1B;}
	.st1{fill:#2BBCEE;}
	.st2{fill:#A4D9F1;}
	.st3{fill:#FFFFFF;}
	.st4{opacity:0.27;}
	.st5{opacity:0.27;fill:#FFFFFF;}
</style>
<g>
	<path class="st0" d="M80.7,175.7c0-0.2,0.1-0.2,0.2-0.2s0.2,0.1,0.2,0.2s-0.1,0.2-0.2,0.2S80.7,175.8,80.7,175.7z M80.7,159.5
		c0-0.2,0.1-0.2,0.2-0.2s0.2,0.1,0.2,0.2s-0.1,0.2-0.2,0.2S80.7,159.7,80.7,159.5z M80.7,160.4c0-0.2,0.1-0.2,0.2-0.2
		s0.2,0.1,0.2,0.2s-0.1,0.2-0.2,0.2S80.7,160.6,80.7,160.4z M80.7,161.2c0-0.2,0.1-0.2,0.2-0.2s0.2,0.1,0.2,0.2s-0.1,0.2-0.2,0.2
		S80.7,161.4,80.7,161.2z M80.7,162.1c0-0.2,0.1-0.2,0.2-0.2s0.2,0.1,0.2,0.2s-0.1,0.2-0.2,0.2S80.7,162.2,80.7,162.1z M80.7,163
		c0-0.2,0.1-0.2,0.2-0.2s0.2,0.1,0.2,0.2s-0.1,0.2-0.2,0.2S80.7,163.2,80.7,163z M80.7,164c0-0.2,0.1-0.2,0.2-0.2s0.2,0.1,0.2,0.2
		s-0.1,0.2-0.2,0.2S80.7,164.2,80.7,164z M80.7,165c0-0.2,0.1-0.2,0.2-0.2s0.2,0.1,0.2,0.2s-0.1,0.2-0.2,0.2S80.7,165.1,80.7,165z
		 M80.7,165.9c0-0.2,0.1-0.2,0.2-0.2s0.2,0.1,0.2,0.2s-0.1,0.2-0.2,0.2S80.7,166,80.7,165.9z M80.7,166.7c0-0.2,0.1-0.2,0.2-0.2
		s0.2,0.1,0.2,0.2s-0.1,0.2-0.2,0.2S80.7,166.9,80.7,166.7z M80.7,167.6c0-0.2,0.1-0.2,0.2-0.2s0.2,0.1,0.2,0.2s-0.1,0.2-0.2,0.2
		S80.7,167.7,80.7,167.6z M80.7,168.4c0-0.2,0.1-0.2,0.2-0.2s0.2,0.1,0.2,0.2s-0.1,0.2-0.2,0.2S80.7,168.6,80.7,168.4z M80.7,169.4
		c0-0.2,0.1-0.2,0.2-0.2s0.2,0.1,0.2,0.2s-0.1,0.2-0.2,0.2S80.7,169.5,80.7,169.4z M80.7,170.3c0-0.2,0.1-0.2,0.2-0.2
		s0.2,0.1,0.2,0.2s-0.1,0.2-0.2,0.2S80.7,170.5,80.7,170.3z M80.7,171.3c0-0.2,0.1-0.2,0.2-0.2s0.2,0.1,0.2,0.2s-0.1,0.2-0.2,0.2
		S80.7,171.4,80.7,171.3z M80.7,172.3c0-0.2,0.1-0.2,0.2-0.2s0.2,0.1,0.2,0.2s-0.1,0.2-0.2,0.2S80.7,172.5,80.7,172.3z M80.7,173.2
		c0-0.2,0.1-0.2,0.2-0.2s0.2,0.1,0.2,0.2s-0.1,0.2-0.2,0.2S80.7,173.4,80.7,173.2z M80.7,174c0-0.2,0.1-0.2,0.2-0.2s0.2,0.1,0.2,0.2
		s-0.1,0.2-0.2,0.2S80.7,174.2,80.7,174z M80.7,174.9c0-0.2,0.1-0.2,0.2-0.2s0.2,0.1,0.2,0.2s-0.1,0.2-0.2,0.2S80.7,175,80.7,174.9z
		 M81.3,160.2c-0.1-0.1,0-0.2,0.1-0.3c0.1-0.1,0.3,0,0.3,0.1c0.1,0.2,0,0.3-0.1,0.3C81.5,160.4,81.4,160.4,81.3,160.2z M81.6,161
		c-0.1-0.2,0-0.3,0.1-0.3c0.1,0,0.1,0,0.2,0c0.1,0,0.1,0.1,0.1,0.2c0.1,0.1,0,0.3-0.1,0.3C81.8,161.2,81.7,161.2,81.6,161z
		 M82,161.8c-0.1-0.1,0-0.2,0.1-0.3c0.1-0.1,0.3,0,0.3,0.1c0.1,0.2,0,0.3-0.1,0.3C82.1,162,82,161.9,82,161.8z M82.3,162.6
		c-0.1-0.2,0-0.3,0.1-0.3c0.1-0.1,0.2,0,0.3,0.1c0.1,0.1,0,0.3-0.1,0.3C82.5,162.7,82.3,162.7,82.3,162.6z M82.6,163.4
		c0-0.1,0-0.3,0.1-0.3c0.1-0.1,0.3,0,0.3,0.1c0.1,0.2,0,0.3-0.1,0.3C82.8,163.6,82.7,163.6,82.6,163.4z M83.1,164.4
		c-0.1-0.1,0-0.3,0.1-0.3c0.1,0,0.1,0,0.2,0c0.1,0,0.1,0.1,0.1,0.1c0.1,0.1,0,0.3-0.1,0.3C83.2,164.5,83.1,164.5,83.1,164.4z
		 M83.4,165.2c-0.1-0.1,0-0.2,0.1-0.3c0.1-0.1,0.3,0,0.3,0.1c0.1,0.2,0,0.3-0.1,0.3C83.6,165.4,83.5,165.4,83.4,165.2z M83.8,166.1
		c-0.1-0.2,0-0.3,0.1-0.3c0.1-0.1,0.3,0,0.3,0.1c0.1,0.1,0,0.3-0.1,0.3C83.9,166.2,83.8,166.2,83.8,166.1z M84.1,166.8
		c0-0.1,0-0.1,0-0.2c0-0.1,0.1-0.1,0.1-0.1c0.1-0.1,0.3,0,0.3,0.1c0.1,0.2,0,0.3-0.1,0.3C84.3,167.1,84.2,167,84.1,166.8z
		 M84.4,167.6c-0.1-0.1,0-0.3,0.1-0.3c0.2-0.1,0.3,0,0.3,0.1c0.1,0.2,0,0.3-0.1,0.3C84.6,167.8,84.5,167.8,84.4,167.6z M84.8,168.4
		c-0.1-0.1,0-0.2,0.1-0.3c0.1-0.1,0.3,0,0.3,0.1c0.1,0.2,0,0.3-0.1,0.3c-0.1,0-0.1,0-0.2,0C84.8,168.5,84.8,168.4,84.8,168.4z
		 M85.1,169.3c-0.1-0.2,0-0.3,0.1-0.3c0.2-0.1,0.3,0,0.3,0.1c0,0.1,0,0.1,0,0.2c0,0.1-0.1,0.1-0.2,0.1
		C85.3,169.4,85.2,169.4,85.1,169.3z M85.5,170.2c-0.1-0.2,0-0.3,0.1-0.3c0.1,0,0.1,0,0.2,0c0.1,0,0.1,0.1,0.1,0.2
		c0.1,0.1,0,0.3-0.1,0.3C85.7,170.3,85.6,170.3,85.5,170.2z M85.9,171c-0.1-0.1,0-0.3,0.1-0.3c0.2-0.1,0.3,0,0.3,0.1
		c0.1,0.2,0,0.3-0.1,0.3C86.1,171.2,86,171.2,85.9,171z M86.3,172c-0.1-0.2,0-0.3,0.1-0.3c0.1-0.1,0.2,0,0.3,0.1
		c0.1,0.1,0,0.3-0.1,0.3C86.5,172.2,86.4,172.2,86.3,172z M86.6,172.8c-0.1-0.1,0-0.2,0.1-0.3c0.1-0.1,0.3,0,0.3,0.1
		c0.1,0.2,0,0.3-0.1,0.3C86.8,173,86.7,173,86.6,172.8z M87,173.6c-0.1-0.2,0-0.3,0.1-0.3c0.1-0.1,0.3,0,0.3,0.1
		c0.1,0.1,0,0.3-0.1,0.3C87.1,173.8,87,173.7,87,173.6z M87.3,174.4c-0.1-0.2,0-0.3,0.1-0.3c0.2-0.1,0.3,0,0.3,0.1
		c0.1,0.1,0,0.2-0.1,0.3C87.5,174.5,87.4,174.5,87.3,174.4z M87.8,174.4c-0.1,0.1-0.2,0.2-0.3,0.1c-0.2-0.1-0.2-0.2-0.1-0.3
		c0.1-0.1,0.2-0.2,0.3-0.1C87.8,174.1,87.9,174.3,87.8,174.4z M88.1,173.6c-0.1,0.1-0.2,0.2-0.3,0.1c-0.1-0.1-0.2-0.2-0.1-0.3
		c0.1-0.2,0.2-0.2,0.3-0.1C88.1,173.4,88.2,173.5,88.1,173.6z M88.5,172.9c-0.1,0.2-0.2,0.2-0.3,0.1c-0.1-0.1-0.2-0.2-0.1-0.3
		c0.1-0.1,0.2-0.2,0.3-0.1C88.5,172.6,88.5,172.7,88.5,172.9z M88.8,172.1c-0.1,0.1-0.2,0.2-0.3,0.1c-0.1-0.1-0.2-0.2-0.1-0.3
		c0.1-0.2,0.2-0.2,0.3-0.1C88.8,171.8,88.9,171.9,88.8,172.1z M89.2,171.1c-0.1,0.2-0.2,0.2-0.3,0.1c-0.1-0.1-0.2-0.2-0.1-0.3
		c0.1-0.1,0.2-0.2,0.3-0.1C89.2,170.8,89.3,170.9,89.2,171.1z M89.6,170.2c-0.1,0.1-0.2,0.2-0.3,0.1c-0.1-0.1-0.2-0.2-0.1-0.3
		c0-0.1,0.1-0.1,0.1-0.2c0.1,0,0.1,0,0.2,0C89.6,169.9,89.6,170,89.6,170.2z M90,169.3c-0.1,0.1-0.2,0.2-0.3,0.1
		c-0.1,0-0.1-0.1-0.2-0.1c0-0.1,0-0.1,0-0.2c0.1-0.1,0.2-0.2,0.3-0.1C90,169.1,90,169.2,90,169.3z M90.3,168.4
		c0,0.1-0.1,0.1-0.1,0.2c-0.1,0-0.1,0-0.2,0c-0.1-0.1-0.2-0.2-0.1-0.3c0.1-0.1,0.2-0.2,0.3-0.1C90.4,168.2,90.4,168.3,90.3,168.4z
		 M90.7,167.7c-0.1,0.2-0.2,0.2-0.3,0.1c-0.1-0.1-0.2-0.2-0.1-0.3c0.1-0.1,0.2-0.2,0.3-0.1C90.7,167.4,90.7,167.5,90.7,167.7z
		 M91,166.9c-0.1,0.2-0.2,0.2-0.3,0.1c-0.1-0.1-0.2-0.2-0.1-0.3c0.1-0.1,0.2-0.2,0.3-0.1c0.1,0,0.1,0.1,0.1,0.1
		C91,166.8,91,166.8,91,166.9z M91.3,166.1c-0.1,0.1-0.2,0.2-0.3,0.1c-0.2-0.1-0.2-0.2-0.1-0.3c0.1-0.2,0.2-0.2,0.3-0.1
		C91.3,165.8,91.4,165.9,91.3,166.1z M91.7,165.3c-0.1,0.2-0.2,0.2-0.3,0.1c-0.1-0.1-0.2-0.2-0.1-0.3c0.1-0.1,0.2-0.2,0.3-0.1
		C91.7,165.1,91.7,165.2,91.7,165.3z M92.1,164.4c-0.1,0.1-0.2,0.2-0.3,0.1c-0.1-0.1-0.2-0.2-0.1-0.3c0-0.1,0.1-0.1,0.1-0.1
		c0.1,0,0.1,0,0.2,0C92.1,164.2,92.1,164.3,92.1,164.4z M92.5,163.5c-0.1,0.2-0.2,0.2-0.3,0.1c-0.1-0.1-0.2-0.2-0.1-0.3
		c0.1-0.1,0.2-0.2,0.3-0.1C92.5,163.2,92.5,163.3,92.5,163.5z M92.8,162.6c-0.1,0.1-0.2,0.2-0.3,0.1c-0.1-0.1-0.2-0.2-0.1-0.3
		c0.1-0.2,0.2-0.2,0.3-0.1C92.8,162.3,92.9,162.4,92.8,162.6z M93.1,161.8c-0.1,0.2-0.2,0.2-0.3,0.1c-0.1-0.1-0.2-0.2-0.1-0.3
		c0.1-0.1,0.2-0.2,0.3-0.1C93.2,161.6,93.2,161.7,93.1,161.8z M93.5,161.1c-0.1,0.1-0.2,0.2-0.3,0.1c-0.1-0.1-0.2-0.2-0.1-0.3
		c0-0.1,0.1-0.1,0.1-0.2c0.1,0,0.1,0,0.2,0C93.5,160.8,93.5,160.9,93.5,161.1z M93.9,160.3c-0.1,0.2-0.2,0.2-0.3,0.1
		c-0.1-0.1-0.2-0.2-0.1-0.3c0.1-0.1,0.2-0.2,0.3-0.1C93.9,160,93.9,160.1,93.9,160.3z M93.9,159.5c0-0.2,0.1-0.2,0.2-0.2
		s0.2,0.1,0.2,0.2s-0.1,0.2-0.2,0.2S93.9,159.7,93.9,159.5z M94,175.7c0-0.2,0.1-0.2,0.2-0.2s0.2,0.1,0.2,0.2s-0.1,0.2-0.2,0.2
		S94,175.8,94,175.7z M94,160.4c0-0.2,0.1-0.2,0.2-0.2s0.2,0.1,0.2,0.2s-0.1,0.2-0.2,0.2S94,160.6,94,160.4z M94,161.2
		c0-0.2,0.1-0.2,0.2-0.2s0.2,0.1,0.2,0.2s-0.1,0.2-0.2,0.2S94,161.4,94,161.2z M94,162.1c0-0.2,0.1-0.2,0.2-0.2s0.2,0.1,0.2,0.2
		s-0.1,0.2-0.2,0.2S94,162.2,94,162.1z M94,163c0-0.2,0.1-0.2,0.2-0.2s0.2,0.1,0.2,0.2s-0.1,0.2-0.2,0.2S94,163.2,94,163z M94,164
		c0-0.2,0.1-0.2,0.2-0.2s0.2,0.1,0.2,0.2s-0.1,0.2-0.2,0.2S94,164.2,94,164z M94,165c0-0.2,0.1-0.2,0.2-0.2s0.2,0.1,0.2,0.2
		s-0.1,0.2-0.2,0.2S94,165.1,94,165z M94,165.9c0-0.2,0.1-0.2,0.2-0.2s0.2,0.1,0.2,0.2s-0.1,0.2-0.2,0.2S94,166,94,165.9z M94,166.7
		c0-0.2,0.1-0.2,0.2-0.2s0.2,0.1,0.2,0.2s-0.1,0.2-0.2,0.2S94,166.9,94,166.7z M94,167.6c0-0.2,0.1-0.2,0.2-0.2s0.2,0.1,0.2,0.2
		s-0.1,0.2-0.2,0.2S94,167.7,94,167.6z M94,168.4c0-0.2,0.1-0.2,0.2-0.2s0.2,0.1,0.2,0.2s-0.1,0.2-0.2,0.2S94,168.6,94,168.4z
		 M94,169.4c0-0.2,0.1-0.2,0.2-0.2s0.2,0.1,0.2,0.2s-0.1,0.2-0.2,0.2S94,169.5,94,169.4z M94,170.3c0-0.2,0.1-0.2,0.2-0.2
		s0.2,0.1,0.2,0.2s-0.1,0.2-0.2,0.2S94,170.5,94,170.3z M94,171.3c0-0.2,0.1-0.2,0.2-0.2s0.2,0.1,0.2,0.2s-0.1,0.2-0.2,0.2
		S94,171.4,94,171.3z M94,172.3c0-0.2,0.1-0.2,0.2-0.2s0.2,0.1,0.2,0.2s-0.1,0.2-0.2,0.2S94,172.5,94,172.3z M94,173.2
		c0-0.2,0.1-0.2,0.2-0.2s0.2,0.1,0.2,0.2s-0.1,0.2-0.2,0.2S94,173.4,94,173.2z M94,174c0-0.2,0.1-0.2,0.2-0.2s0.2,0.1,0.2,0.2
		s-0.1,0.2-0.2,0.2S94,174.2,94,174z M94,174.9c0-0.2,0.1-0.2,0.2-0.2s0.2,0.1,0.2,0.2s-0.1,0.2-0.2,0.2S94,175,94,174.9z"/>
	<path class="st0" d="M98.5,171.3c0,0.1-0.1,0.2-0.2,0.2s-0.2-0.1-0.2-0.2s0.1-0.2,0.2-0.2S98.5,171.1,98.5,171.3z M98.6,170.5
		c0,0.1-0.1,0.2-0.3,0.2c-0.1,0-0.2-0.1-0.2-0.2s0.1-0.2,0.2-0.2S98.6,170.3,98.6,170.5z M98.3,171.8c0.2,0,0.3,0.1,0.3,0.3
		c0,0.1-0.1,0.2-0.2,0.2c-0.2,0-0.3,0-0.3-0.2C98.1,171.9,98.2,171.9,98.3,171.8z M98.4,172.6c0.2,0,0.3,0.1,0.3,0.2
		c0,0.1,0,0.1-0.1,0.2c0,0.1-0.1,0.1-0.2,0.1c-0.2,0-0.2,0-0.2-0.2C98.2,172.7,98.2,172.6,98.4,172.6z M98.8,169.6
		c0,0.2-0.1,0.2-0.2,0.2c-0.2,0-0.2-0.1-0.2-0.3c0-0.2,0.1-0.3,0.3-0.2C98.8,169.4,98.8,169.4,98.8,169.6z M98.7,173.4
		c0.2,0,0.3,0,0.3,0.2c0,0.2-0.1,0.3-0.2,0.3c-0.2,0-0.3-0.1-0.3-0.3C98.5,173.5,98.6,173.4,98.7,173.4z M99.2,168.8
		c0,0.2-0.1,0.2-0.2,0.2s-0.2-0.1-0.2-0.2s0.1-0.2,0.2-0.2S99.2,168.6,99.2,168.8z M99.2,174c0.2,0,0.3,0,0.2,0.2
		c0,0.1,0,0.2-0.2,0.3c-0.2,0-0.3-0.1-0.3-0.2C99,174.1,99.1,174,99.2,174z M99.7,168c0,0.2-0.1,0.2-0.3,0.2c-0.1,0-0.2-0.1-0.2-0.2
		s0.1-0.2,0.2-0.2S99.7,167.9,99.7,168z M99.8,174.6c0.2,0,0.2,0,0.2,0.2c0,0.2,0,0.3-0.2,0.3c-0.2,0-0.3-0.1-0.3-0.2
		c0-0.1,0-0.1,0.1-0.2C99.7,174.6,99.7,174.5,99.8,174.6z M100.3,167.5c0,0.2-0.1,0.2-0.2,0.2s-0.2-0.1-0.2-0.3
		c0-0.1,0.1-0.2,0.2-0.2S100.3,167.4,100.3,167.5z M100.7,174.9c0.2,0,0.3,0,0.3,0.2c0,0.1-0.1,0.2-0.3,0.3c-0.2,0-0.3-0.1-0.2-0.2
		C100.4,175,100.5,174.9,100.7,174.9z M101.1,167c0,0.2-0.1,0.2-0.3,0.2c-0.2,0-0.3-0.1-0.2-0.2c0-0.2,0.1-0.2,0.2-0.2
		S101.1,166.9,101.1,167z M101.5,175.2c0.2,0,0.2,0.1,0.2,0.2c0,0.2-0.1,0.3-0.2,0.3c-0.1,0-0.1,0-0.2-0.1c-0.1,0-0.1-0.1-0.1-0.2
		C101.3,175.2,101.4,175.2,101.5,175.2z M101.9,166.8c0,0.2-0.1,0.2-0.3,0.2c-0.1,0-0.2-0.1-0.2-0.2s0.1-0.2,0.2-0.2
		S101.9,166.7,101.9,166.8z M102.3,175.2c0.2,0,0.3,0.1,0.2,0.3c0,0.2-0.1,0.2-0.2,0.2c-0.2,0-0.2-0.1-0.2-0.3
		C102,175.4,102.1,175.3,102.3,175.2z M102.3,166.8c0-0.2,0.1-0.2,0.2-0.2s0.2,0.1,0.2,0.2s-0.1,0.2-0.2,0.2
		S102.3,166.9,102.3,166.8z M103.2,175.1c0.1,0,0.1,0,0.2,0.1c0,0.1,0.1,0.1,0,0.2c0,0.1,0,0.1-0.1,0.2c-0.1,0-0.1,0.1-0.2,0.1
		c-0.1,0-0.2-0.1-0.2-0.3C103,175.2,103.1,175.1,103.2,175.1z M103.1,166.8c0-0.2,0.1-0.2,0.2-0.2s0.2,0.1,0.2,0.2s-0.1,0.2-0.2,0.2
		S103.1,167,103.1,166.8z M104.1,174.9c0.2,0,0.2,0.1,0.2,0.3c0,0.1-0.1,0.2-0.2,0.2c-0.2,0-0.2-0.1-0.2-0.3
		C103.8,175,103.9,174.9,104.1,174.9z M103.8,167c0-0.2,0.1-0.2,0.2-0.2s0.2,0.1,0.2,0.2s-0.1,0.2-0.2,0.2S103.8,167.2,103.8,167z
		 M104.5,167.5c0-0.2,0.1-0.2,0.2-0.2s0.2,0.1,0.2,0.2s-0.1,0.2-0.2,0.2S104.5,167.6,104.5,167.5z M104.8,174.5
		c0.2,0,0.2,0.1,0.2,0.3c0,0.1-0.1,0.2-0.3,0.2c-0.2,0-0.2-0.1-0.2-0.3C104.6,174.5,104.7,174.5,104.8,174.5z M105.1,168
		c0-0.2,0.1-0.2,0.2-0.2s0.2,0.1,0.2,0.2s-0.1,0.2-0.2,0.2S105.1,168.2,105.1,168z M105.4,174c0.2,0,0.2,0.1,0.2,0.2
		c0,0.2-0.1,0.2-0.3,0.2c-0.2,0-0.2-0.1-0.2-0.3C105.2,174,105.3,173.9,105.4,174z M105.6,168.8c0-0.2,0.1-0.2,0.2-0.2
		s0.2,0.1,0.2,0.2s-0.1,0.2-0.2,0.2S105.6,168.9,105.6,168.8z M105.9,173.4c0.2,0,0.2,0.1,0.2,0.2c0,0.2-0.1,0.2-0.3,0.2
		c-0.1,0-0.2-0.1-0.2-0.3C105.7,173.4,105.8,173.3,105.9,173.4z M105.9,169.6c0-0.2,0.1-0.2,0.2-0.2s0.2,0.1,0.2,0.2
		s-0.1,0.2-0.2,0.2S105.9,169.7,105.9,169.6z M106.2,172.6c0.2,0,0.3,0.1,0.2,0.3c0,0.2-0.1,0.3-0.3,0.2c-0.1,0-0.2-0.1-0.2-0.3
		C106,172.7,106.1,172.6,106.2,172.6z M106.3,171.8c0.1,0,0.2,0.1,0.2,0.3c0,0.2-0.1,0.3-0.3,0.2c-0.1,0-0.2-0.1-0.2-0.2
		S106.1,171.8,106.3,171.8z M106.1,170.5c0-0.2,0.1-0.2,0.2-0.2s0.2,0.1,0.2,0.2s-0.1,0.2-0.2,0.2S106.1,170.6,106.1,170.5z
		 M106.2,171.3c0-0.2,0.1-0.2,0.2-0.2s0.2,0.1,0.2,0.2s-0.1,0.2-0.2,0.2S106.2,171.4,106.2,171.3z"/>
	<path class="st0" d="M110.1,175.7c0-0.2,0.1-0.2,0.2-0.2s0.2,0.1,0.2,0.2s-0.1,0.2-0.2,0.2S110.1,175.9,110.1,175.7z M110.1,166.8
		c0-0.2,0.1-0.2,0.2-0.2s0.2,0.1,0.2,0.2s-0.1,0.2-0.2,0.2S110.1,167,110.1,166.8z M110.1,167.6c0-0.2,0.1-0.2,0.2-0.2
		s0.2,0.1,0.2,0.2s-0.1,0.2-0.2,0.2S110.1,167.8,110.1,167.6z M110.1,168.5c0-0.2,0.1-0.2,0.2-0.2s0.2,0.1,0.2,0.2s-0.1,0.2-0.2,0.2
		S110.1,168.6,110.1,168.5z M110.1,169.4c0-0.2,0.1-0.2,0.2-0.2s0.2,0.1,0.2,0.2s-0.1,0.2-0.2,0.2S110.1,169.6,110.1,169.4z
		 M110.1,170.4c0-0.2,0.1-0.2,0.2-0.2s0.2,0.1,0.2,0.2s-0.1,0.2-0.2,0.2S110.1,170.5,110.1,170.4z M110.1,171.3
		c0-0.2,0.1-0.2,0.2-0.2s0.2,0.1,0.2,0.2s-0.1,0.2-0.2,0.2S110.1,171.5,110.1,171.3z M110.1,172.4c0-0.2,0.1-0.2,0.2-0.2
		s0.2,0.1,0.2,0.2s-0.1,0.2-0.2,0.2S110.1,172.6,110.1,172.4z M110.1,173.3c0-0.2,0.1-0.2,0.2-0.2s0.2,0.1,0.2,0.2s-0.1,0.2-0.2,0.2
		S110.1,173.4,110.1,173.3z M110.1,174.1c0-0.2,0.1-0.2,0.2-0.2s0.2,0.1,0.2,0.2s-0.1,0.2-0.2,0.2S110.1,174.3,110.1,174.1z
		 M110.1,174.9c0-0.2,0.1-0.2,0.2-0.2s0.2,0.1,0.2,0.2s-0.1,0.2-0.2,0.2S110.1,175.1,110.1,174.9z M110.8,168.8
		c0-0.2,0.1-0.2,0.2-0.2s0.2,0.1,0.2,0.2s-0.1,0.2-0.2,0.2S110.8,169,110.8,168.8z M111.4,168.2c0-0.2,0.1-0.2,0.2-0.2
		s0.2,0.1,0.2,0.2s-0.1,0.2-0.2,0.2S111.4,168.3,111.4,168.2z M112,167.6c0-0.2,0.1-0.2,0.2-0.2s0.2,0.1,0.2,0.2s-0.1,0.2-0.2,0.2
		S112,167.8,112,167.6z M112.7,167.2c0-0.2,0.1-0.2,0.2-0.2s0.2,0.1,0.2,0.2s-0.1,0.2-0.2,0.2S112.7,167.4,112.7,167.2z
		 M113.3,166.9c0-0.2,0.1-0.2,0.2-0.2s0.2,0.1,0.2,0.2s-0.1,0.2-0.2,0.2S113.3,167,113.3,166.9z M114,166.7c0-0.2,0.1-0.2,0.2-0.2
		s0.2,0.1,0.2,0.2s-0.1,0.2-0.2,0.2S114,166.8,114,166.7z M114.7,166.7c0-0.2,0.1-0.2,0.2-0.2s0.2,0.1,0.2,0.2s-0.1,0.2-0.2,0.2
		S114.7,166.8,114.7,166.7z M115.5,166.8c0-0.2,0.1-0.2,0.2-0.2s0.2,0.1,0.2,0.2s-0.1,0.2-0.2,0.2S115.5,167,115.5,166.8z
		 M116.2,167.3c0-0.2,0.1-0.2,0.2-0.2s0.2,0.1,0.2,0.2s-0.1,0.2-0.2,0.2S116.2,167.4,116.2,167.3z M116.8,167.8
		c0-0.2,0.1-0.2,0.2-0.2s0.2,0.1,0.2,0.2s-0.1,0.2-0.2,0.2S116.8,168,116.8,167.8z M117.2,168.6c0-0.2,0.1-0.2,0.2-0.2
		s0.2,0.1,0.2,0.2s-0.1,0.2-0.2,0.2S117.2,168.7,117.2,168.6z M117.4,169.4c0-0.2,0.1-0.2,0.2-0.2s0.2,0.1,0.2,0.2s-0.1,0.2-0.2,0.2
		S117.4,169.6,117.4,169.4z M117.6,170.3c0-0.2,0.1-0.2,0.2-0.2s0.2,0.1,0.2,0.2s-0.1,0.2-0.2,0.2S117.6,170.5,117.6,170.3z
		 M117.6,171.2c0-0.2,0.1-0.2,0.2-0.2s0.2,0.1,0.2,0.2s-0.1,0.2-0.2,0.2S117.6,171.4,117.6,171.2z M117.6,172.1
		c0-0.2,0.1-0.2,0.2-0.2s0.2,0.1,0.2,0.2s-0.1,0.2-0.2,0.2S117.6,172.3,117.6,172.1z M117.6,172.9c0-0.2,0.1-0.2,0.2-0.2
		s0.2,0.1,0.2,0.2s-0.1,0.2-0.2,0.2S117.6,173.1,117.6,172.9z M117.6,173.8c0-0.2,0.1-0.2,0.2-0.2s0.2,0.1,0.2,0.2s-0.1,0.2-0.2,0.2
		S117.6,173.9,117.6,173.8z M117.6,174.7c0-0.2,0.1-0.2,0.2-0.2s0.2,0.1,0.2,0.2s-0.1,0.2-0.2,0.2S117.6,174.9,117.6,174.7z
		 M117.6,175.7c0-0.2,0.1-0.2,0.2-0.2s0.2,0.1,0.2,0.2s-0.1,0.2-0.2,0.2S117.6,175.9,117.6,175.7z"/>
	<path class="st0" d="M122,171.3c0,0.1-0.1,0.2-0.2,0.2s-0.2-0.1-0.2-0.2s0.1-0.2,0.2-0.2S122,171.1,122,171.3z M122.1,170.5
		c0,0.1-0.1,0.2-0.3,0.2c-0.1,0-0.2-0.1-0.2-0.2s0.1-0.2,0.2-0.2S122.1,170.3,122.1,170.5z M121.9,171.8c0.2,0,0.3,0.1,0.3,0.3
		c0,0.1-0.1,0.2-0.2,0.2c-0.2,0-0.3,0-0.3-0.2C121.6,171.9,121.7,171.9,121.9,171.8z M122,172.6c0.2,0,0.3,0.1,0.3,0.2
		c0,0.1,0,0.1-0.1,0.2c0,0.1-0.1,0.1-0.2,0.1c-0.2,0-0.2,0-0.2-0.2C121.7,172.7,121.8,172.6,122,172.6z M122.3,169.6
		c0,0.2-0.1,0.2-0.2,0.2c-0.2,0-0.2-0.1-0.2-0.3c0-0.2,0.1-0.3,0.3-0.2C122.3,169.4,122.4,169.4,122.3,169.6z M122.3,173.4
		c0.2,0,0.3,0,0.3,0.2c0,0.2-0.1,0.3-0.2,0.3c-0.2,0-0.3-0.1-0.3-0.3C122,173.5,122.1,173.4,122.3,173.4z M122.7,168.8
		c0,0.2-0.1,0.2-0.2,0.2s-0.2-0.1-0.2-0.2s0.1-0.2,0.2-0.2S122.7,168.6,122.7,168.8z M122.8,174c0.2,0,0.3,0,0.2,0.2
		c0,0.1,0,0.2-0.2,0.3c-0.2,0-0.3-0.1-0.3-0.2C122.5,174.1,122.6,174,122.8,174z M123.3,168c0,0.2-0.1,0.2-0.3,0.2
		c-0.1,0-0.2-0.1-0.2-0.2s0.1-0.2,0.2-0.2S123.3,167.9,123.3,168z M123.4,174.6c0.2,0,0.2,0,0.2,0.2c0,0.2,0,0.3-0.2,0.3
		c-0.2,0-0.3-0.1-0.3-0.2c0-0.1,0-0.1,0.1-0.2C123.2,174.6,123.3,174.5,123.4,174.6z M123.9,167.5c0,0.2-0.1,0.2-0.2,0.2
		s-0.2-0.1-0.2-0.3c0-0.1,0.1-0.2,0.2-0.2S123.9,167.4,123.9,167.5z M124.2,174.9c0.2,0,0.3,0,0.3,0.2c0,0.1-0.1,0.2-0.3,0.3
		c-0.2,0-0.3-0.1-0.2-0.2C124,175,124,174.9,124.2,174.9z M124.6,167c0,0.2-0.1,0.2-0.3,0.2c-0.2,0-0.3-0.1-0.2-0.2
		c0-0.2,0.1-0.2,0.2-0.2S124.6,166.9,124.6,167z M125.1,175.2c0.2,0,0.2,0.1,0.2,0.2c0,0.2-0.1,0.3-0.2,0.3c-0.1,0-0.1,0-0.2-0.1
		c-0.1,0-0.1-0.1-0.1-0.2C124.8,175.2,124.9,175.2,125.1,175.2z M125.5,166.8c0,0.2-0.1,0.2-0.3,0.2c-0.1,0-0.2-0.1-0.2-0.2
		s0.1-0.2,0.2-0.2S125.5,166.7,125.5,166.8z M125.8,175.2c0.2,0,0.3,0.1,0.2,0.3c0,0.2-0.1,0.2-0.2,0.2c-0.2,0-0.2-0.1-0.2-0.3
		C125.6,175.4,125.7,175.3,125.8,175.2z M125.8,166.8c0-0.2,0.1-0.2,0.2-0.2s0.2,0.1,0.2,0.2s-0.1,0.2-0.2,0.2
		S125.8,166.9,125.8,166.8z M126.8,175.1c0.1,0,0.1,0,0.2,0.1c0,0.1,0.1,0.1,0,0.2c0,0.1,0,0.1-0.1,0.2c-0.1,0-0.1,0.1-0.2,0.1
		c-0.1,0-0.2-0.1-0.2-0.3C126.5,175.2,126.6,175.1,126.8,175.1z M126.6,166.8c0-0.2,0.1-0.2,0.2-0.2s0.2,0.1,0.2,0.2
		s-0.1,0.2-0.2,0.2S126.6,167,126.6,166.8z M127.6,174.9c0.2,0,0.2,0.1,0.2,0.3c0,0.1-0.1,0.2-0.2,0.2c-0.2,0-0.2-0.1-0.2-0.3
		C127.3,175,127.4,174.9,127.6,174.9z M127.4,167c0-0.2,0.1-0.2,0.2-0.2s0.2,0.1,0.2,0.2s-0.1,0.2-0.2,0.2S127.4,167.2,127.4,167z
		 M128,167.5c0-0.2,0.1-0.2,0.2-0.2s0.2,0.1,0.2,0.2s-0.1,0.2-0.2,0.2S128,167.6,128,167.5z M128.4,174.5c0.2,0,0.2,0.1,0.2,0.3
		c0,0.1-0.1,0.2-0.3,0.2c-0.2,0-0.2-0.1-0.2-0.3C128.1,174.5,128.2,174.5,128.4,174.5z M128.6,168c0-0.2,0.1-0.2,0.2-0.2
		s0.2,0.1,0.2,0.2s-0.1,0.2-0.2,0.2S128.6,168.2,128.6,168z M129,174c0.2,0,0.2,0.1,0.2,0.2c0,0.2-0.1,0.2-0.3,0.2
		c-0.2,0-0.2-0.1-0.2-0.3C128.7,174,128.8,173.9,129,174z M129.1,168.8c0-0.2,0.1-0.2,0.2-0.2s0.2,0.1,0.2,0.2s-0.1,0.2-0.2,0.2
		S129.1,168.9,129.1,168.8z M129.5,173.4c0.2,0,0.2,0.1,0.2,0.2c0,0.2-0.1,0.2-0.3,0.2c-0.1,0-0.2-0.1-0.2-0.3
		C129.2,173.4,129.3,173.3,129.5,173.4z M129.4,169.6c0-0.2,0.1-0.2,0.2-0.2s0.2,0.1,0.2,0.2s-0.1,0.2-0.2,0.2
		S129.4,169.7,129.4,169.6z M129.8,172.6c0.2,0,0.3,0.1,0.2,0.3c0,0.2-0.1,0.3-0.3,0.2c-0.1,0-0.2-0.1-0.2-0.3
		C129.5,172.7,129.6,172.6,129.8,172.6z M129.9,171.8c0.1,0,0.2,0.1,0.2,0.3c0,0.2-0.1,0.3-0.3,0.2c-0.1,0-0.2-0.1-0.2-0.2
		S129.7,171.8,129.9,171.8z M129.6,170.5c0-0.2,0.1-0.2,0.2-0.2s0.2,0.1,0.2,0.2s-0.1,0.2-0.2,0.2S129.6,170.6,129.6,170.5z
		 M129.7,171.3c0-0.2,0.1-0.2,0.2-0.2s0.2,0.1,0.2,0.2s-0.1,0.2-0.2,0.2S129.7,171.4,129.7,171.3z"/>
	<path class="st0" d="M131.3,167.4c-0.2,0-0.2-0.1-0.2-0.2s0.1-0.2,0.2-0.2s0.2,0.1,0.2,0.2S131.4,167.4,131.3,167.4z M132.2,167.4
		c-0.2,0-0.2-0.1-0.2-0.2s0.1-0.2,0.2-0.2s0.2,0.1,0.2,0.2S132.4,167.4,132.2,167.4z M133.1,167.4c-0.2,0-0.2-0.1-0.2-0.2
		s0.1-0.2,0.2-0.2s0.2,0.1,0.2,0.2S133.3,167.4,133.1,167.4z M134,167.4c-0.2,0-0.2-0.1-0.2-0.2s0.1-0.2,0.2-0.2s0.2,0.1,0.2,0.2
		S134.1,167.4,134,167.4z M134.8,167.4c-0.2,0-0.2-0.1-0.2-0.2s0.1-0.2,0.2-0.2s0.2,0.1,0.2,0.2S135,167.4,134.8,167.4z M135,175.7
		c0-0.2,0.1-0.2,0.2-0.2s0.2,0.1,0.2,0.2s-0.1,0.2-0.2,0.2S135,175.8,135,175.7z M135,161.2c0-0.2,0.1-0.2,0.2-0.2s0.2,0.1,0.2,0.2
		s-0.1,0.2-0.2,0.2S135,161.4,135,161.2z M135,162.1c0-0.2,0.1-0.2,0.2-0.2s0.2,0.1,0.2,0.2s-0.1,0.2-0.2,0.2S135,162.2,135,162.1z
		 M135,163c0-0.2,0.1-0.2,0.2-0.2s0.2,0.1,0.2,0.2s-0.1,0.2-0.2,0.2S135,163.2,135,163z M135,164c0-0.2,0.1-0.2,0.2-0.2
		s0.2,0.1,0.2,0.2s-0.1,0.2-0.2,0.2S135,164.2,135,164z M135,165c0-0.2,0.1-0.2,0.2-0.2s0.2,0.1,0.2,0.2s-0.1,0.2-0.2,0.2
		S135,165.1,135,165z M135,165.9c0-0.2,0.1-0.2,0.2-0.2s0.2,0.1,0.2,0.2s-0.1,0.2-0.2,0.2S135,166,135,165.9z M135,166.7
		c0-0.2,0.1-0.2,0.2-0.2s0.2,0.1,0.2,0.2s-0.1,0.2-0.2,0.2S135,166.9,135,166.7z M135,167.6c0-0.2,0.1-0.2,0.2-0.2s0.2,0.1,0.2,0.2
		s-0.1,0.2-0.2,0.2S135,167.7,135,167.6z M135,168.4c0-0.2,0.1-0.2,0.2-0.2s0.2,0.1,0.2,0.2s-0.1,0.2-0.2,0.2S135,168.6,135,168.4z
		 M135,169.4c0-0.2,0.1-0.2,0.2-0.2s0.2,0.1,0.2,0.2s-0.1,0.2-0.2,0.2S135,169.5,135,169.4z M135,170.3c0-0.2,0.1-0.2,0.2-0.2
		s0.2,0.1,0.2,0.2s-0.1,0.2-0.2,0.2S135,170.5,135,170.3z M135,171.3c0-0.2,0.1-0.2,0.2-0.2s0.2,0.1,0.2,0.2s-0.1,0.2-0.2,0.2
		S135,171.4,135,171.3z M135,172.3c0-0.2,0.1-0.2,0.2-0.2s0.2,0.1,0.2,0.2s-0.1,0.2-0.2,0.2S135,172.5,135,172.3z M135,173.2
		c0-0.2,0.1-0.2,0.2-0.2s0.2,0.1,0.2,0.2s-0.1,0.2-0.2,0.2S135,173.4,135,173.2z M135,174c0-0.2,0.1-0.2,0.2-0.2s0.2,0.1,0.2,0.2
		s-0.1,0.2-0.2,0.2S135,174.2,135,174z M135,174.9c0-0.2,0.1-0.2,0.2-0.2s0.2,0.1,0.2,0.2s-0.1,0.2-0.2,0.2S135,175,135,174.9z
		 M135.6,167.4c-0.2,0-0.2-0.1-0.2-0.2s0.1-0.2,0.2-0.2s0.2,0.1,0.2,0.2S135.8,167.4,135.6,167.4z M136.6,167.4
		c-0.2,0-0.2-0.1-0.2-0.2s0.1-0.2,0.2-0.2s0.2,0.1,0.2,0.2S136.8,167.4,136.6,167.4z M137.6,167.4c-0.2,0-0.2-0.1-0.2-0.2
		s0.1-0.2,0.2-0.2s0.2,0.1,0.2,0.2S137.7,167.4,137.6,167.4z M138.5,167.4c-0.2,0-0.2-0.1-0.2-0.2s0.1-0.2,0.2-0.2s0.2,0.1,0.2,0.2
		S138.7,167.4,138.5,167.4z M139.4,167.4c-0.2,0-0.2-0.1-0.2-0.2s0.1-0.2,0.2-0.2s0.2,0.1,0.2,0.2S139.6,167.4,139.4,167.4z"/>
	<path class="st0" d="M141.1,171.3c0,0.1-0.1,0.2-0.2,0.2s-0.2-0.1-0.2-0.2s0.1-0.2,0.2-0.2S141.1,171.1,141.1,171.3z M141.2,170.5
		c0,0.1-0.1,0.2-0.3,0.2c-0.1,0-0.2-0.1-0.2-0.2s0.1-0.2,0.2-0.2S141.2,170.3,141.2,170.5z M141,171.8c0.2,0,0.3,0.1,0.3,0.3
		c0,0.1-0.1,0.2-0.2,0.2c-0.2,0-0.3,0-0.3-0.2C140.8,171.9,140.8,171.9,141,171.8z M141.1,172.6c0.2,0,0.3,0.1,0.3,0.2
		c0,0.1,0,0.1-0.1,0.2c0,0.1-0.1,0.1-0.2,0.1c-0.2,0-0.2,0-0.2-0.2C140.8,172.7,140.9,172.6,141.1,172.6z M141.5,169.6
		c0,0.2-0.1,0.2-0.2,0.2c-0.2,0-0.2-0.1-0.2-0.3c0-0.2,0.1-0.3,0.3-0.2C141.4,169.4,141.5,169.4,141.5,169.6z M141.4,173.4
		c0.2,0,0.3,0,0.3,0.2c0,0.2-0.1,0.3-0.2,0.3c-0.2,0-0.3-0.1-0.3-0.3C141.2,173.5,141.2,173.4,141.4,173.4z M141.8,168.8
		c0,0.2-0.1,0.2-0.2,0.2s-0.2-0.1-0.2-0.2s0.1-0.2,0.2-0.2S141.8,168.6,141.8,168.8z M141.9,174c0.2,0,0.3,0,0.2,0.2
		c0,0.1,0,0.2-0.2,0.3c-0.2,0-0.3-0.1-0.3-0.2C141.6,174.1,141.7,174,141.9,174z M142.4,168c0,0.2-0.1,0.2-0.3,0.2
		c-0.1,0-0.2-0.1-0.2-0.2s0.1-0.2,0.2-0.2S142.4,167.9,142.4,168z M142.5,174.6c0.2,0,0.2,0,0.2,0.2c0,0.2,0,0.3-0.2,0.3
		c-0.2,0-0.3-0.1-0.3-0.2c0-0.1,0-0.1,0.1-0.2C142.3,174.6,142.4,174.5,142.5,174.6z M143,167.5c0,0.2-0.1,0.2-0.2,0.2
		s-0.2-0.1-0.2-0.3c0-0.1,0.1-0.2,0.2-0.2S143,167.4,143,167.5z M143.3,174.9c0.2,0,0.3,0,0.3,0.2c0,0.1-0.1,0.2-0.3,0.3
		c-0.2,0-0.3-0.1-0.2-0.2C143.1,175,143.2,174.9,143.3,174.9z M143.8,167c0,0.2-0.1,0.2-0.3,0.2c-0.2,0-0.3-0.1-0.2-0.2
		c0-0.2,0.1-0.2,0.2-0.2S143.8,166.9,143.8,167z M144.2,175.2c0.2,0,0.2,0.1,0.2,0.2c0,0.2-0.1,0.3-0.2,0.3c-0.1,0-0.1,0-0.2-0.1
		c-0.1,0-0.1-0.1-0.1-0.2C143.9,175.2,144,175.2,144.2,175.2z M144.6,166.8c0,0.2-0.1,0.2-0.3,0.2c-0.1,0-0.2-0.1-0.2-0.2
		s0.1-0.2,0.2-0.2S144.6,166.7,144.6,166.8z M144.9,175.2c0.2,0,0.3,0.1,0.2,0.3c0,0.2-0.1,0.2-0.2,0.2c-0.2,0-0.2-0.1-0.2-0.3
		C144.7,175.4,144.8,175.3,144.9,175.2z M144.9,166.8c0-0.2,0.1-0.2,0.2-0.2s0.2,0.1,0.2,0.2s-0.1,0.2-0.2,0.2
		S144.9,166.9,144.9,166.8z M145.9,175.1c0.1,0,0.1,0,0.2,0.1c0,0.1,0.1,0.1,0,0.2c0,0.1,0,0.1-0.1,0.2c-0.1,0-0.1,0.1-0.2,0.1
		c-0.1,0-0.2-0.1-0.2-0.3C145.6,175.2,145.7,175.1,145.9,175.1z M145.7,166.8c0-0.2,0.1-0.2,0.2-0.2s0.2,0.1,0.2,0.2
		s-0.1,0.2-0.2,0.2S145.7,167,145.7,166.8z M146.7,174.9c0.2,0,0.2,0.1,0.2,0.3c0,0.1-0.1,0.2-0.2,0.2c-0.2,0-0.2-0.1-0.2-0.3
		C146.4,175,146.5,174.9,146.7,174.9z M146.5,167c0-0.2,0.1-0.2,0.2-0.2s0.2,0.1,0.2,0.2s-0.1,0.2-0.2,0.2S146.5,167.2,146.5,167z
		 M147.1,167.5c0-0.2,0.1-0.2,0.2-0.2s0.2,0.1,0.2,0.2s-0.1,0.2-0.2,0.2S147.1,167.6,147.1,167.5z M147.5,174.5
		c0.2,0,0.2,0.1,0.2,0.3c0,0.1-0.1,0.2-0.3,0.2c-0.2,0-0.2-0.1-0.2-0.3C147.2,174.5,147.3,174.5,147.5,174.5z M147.7,168
		c0-0.2,0.1-0.2,0.2-0.2s0.2,0.1,0.2,0.2s-0.1,0.2-0.2,0.2S147.7,168.2,147.7,168z M148.1,174c0.2,0,0.2,0.1,0.2,0.2
		c0,0.2-0.1,0.2-0.3,0.2c-0.2,0-0.2-0.1-0.2-0.3C147.8,174,147.9,173.9,148.1,174z M148.2,168.8c0-0.2,0.1-0.2,0.2-0.2
		s0.2,0.1,0.2,0.2s-0.1,0.2-0.2,0.2S148.2,168.9,148.2,168.8z M148.6,173.4c0.2,0,0.2,0.1,0.2,0.2c0,0.2-0.1,0.2-0.3,0.2
		c-0.1,0-0.2-0.1-0.2-0.3C148.3,173.4,148.4,173.3,148.6,173.4z M148.5,169.6c0-0.2,0.1-0.2,0.2-0.2s0.2,0.1,0.2,0.2
		s-0.1,0.2-0.2,0.2S148.5,169.7,148.5,169.6z M148.9,172.6c0.2,0,0.3,0.1,0.2,0.3c0,0.2-0.1,0.3-0.3,0.2c-0.1,0-0.2-0.1-0.2-0.3
		C148.6,172.7,148.7,172.6,148.9,172.6z M149,171.8c0.1,0,0.2,0.1,0.2,0.3c0,0.2-0.1,0.3-0.3,0.2c-0.1,0-0.2-0.1-0.2-0.2
		S148.8,171.8,149,171.8z M148.8,170.5c0-0.2,0.1-0.2,0.2-0.2s0.2,0.1,0.2,0.2s-0.1,0.2-0.2,0.2S148.8,170.6,148.8,170.5z
		 M148.8,171.3c0-0.2,0.1-0.2,0.2-0.2s0.2,0.1,0.2,0.2s-0.1,0.2-0.2,0.2S148.8,171.4,148.8,171.3z"/>
	<path class="st0" d="M152.7,175.7c0-0.2,0.1-0.2,0.2-0.2s0.2,0.1,0.2,0.2s-0.1,0.2-0.2,0.2S152.7,175.9,152.7,175.7z M152.8,166.8
		c0-0.2,0.1-0.2,0.2-0.2s0.2,0.1,0.2,0.2s-0.1,0.2-0.2,0.2S152.8,167,152.8,166.8z M152.8,167.6c0-0.2,0.1-0.2,0.2-0.2
		s0.2,0.1,0.2,0.2s-0.1,0.2-0.2,0.2S152.8,167.8,152.8,167.6z M152.8,168.5c0-0.2,0.1-0.2,0.2-0.2s0.2,0.1,0.2,0.2s-0.1,0.2-0.2,0.2
		S152.8,168.6,152.8,168.5z M152.8,169.4c0-0.2,0.1-0.2,0.2-0.2s0.2,0.1,0.2,0.2s-0.1,0.2-0.2,0.2S152.8,169.6,152.8,169.4z
		 M152.8,170.4c0-0.2,0.1-0.2,0.2-0.2s0.2,0.1,0.2,0.2s-0.1,0.2-0.2,0.2S152.8,170.5,152.8,170.4z M152.8,171.3
		c0-0.2,0.1-0.2,0.2-0.2s0.2,0.1,0.2,0.2s-0.1,0.2-0.2,0.2S152.8,171.5,152.8,171.3z M152.8,172.4c0-0.2,0.1-0.2,0.2-0.2
		s0.2,0.1,0.2,0.2s-0.1,0.2-0.2,0.2S152.8,172.6,152.8,172.4z M152.8,173.3c0-0.2,0.1-0.2,0.2-0.2s0.2,0.1,0.2,0.2s-0.1,0.2-0.2,0.2
		S152.8,173.4,152.8,173.3z M152.8,174.1c0-0.2,0.1-0.2,0.2-0.2s0.2,0.1,0.2,0.2s-0.1,0.2-0.2,0.2S152.8,174.3,152.8,174.1z
		 M152.8,174.9c0-0.2,0.1-0.2,0.2-0.2s0.2,0.1,0.2,0.2s-0.1,0.2-0.2,0.2S152.8,175.1,152.8,174.9z M153.4,168.8
		c0-0.2,0.1-0.2,0.2-0.2s0.2,0.1,0.2,0.2s-0.1,0.2-0.2,0.2S153.4,169,153.4,168.8z M154,168.2c0-0.2,0.1-0.2,0.2-0.2
		s0.2,0.1,0.2,0.2s-0.1,0.2-0.2,0.2S154,168.3,154,168.2z M154.6,167.6c0-0.2,0.1-0.2,0.2-0.2s0.2,0.1,0.2,0.2s-0.1,0.2-0.2,0.2
		S154.6,167.8,154.6,167.6z M155.3,167.2c0-0.2,0.1-0.2,0.2-0.2s0.2,0.1,0.2,0.2s-0.1,0.2-0.2,0.2S155.3,167.4,155.3,167.2z
		 M156,166.9c0-0.2,0.1-0.2,0.2-0.2s0.2,0.1,0.2,0.2s-0.1,0.2-0.2,0.2S156,167,156,166.9z M156.6,166.7c0-0.2,0.1-0.2,0.2-0.2
		s0.2,0.1,0.2,0.2s-0.1,0.2-0.2,0.2S156.6,166.8,156.6,166.7z M157.4,166.7c0-0.2,0.1-0.2,0.2-0.2s0.2,0.1,0.2,0.2s-0.1,0.2-0.2,0.2
		S157.4,166.8,157.4,166.7z M158.2,166.8c0-0.2,0.1-0.2,0.2-0.2s0.2,0.1,0.2,0.2s-0.1,0.2-0.2,0.2S158.2,167,158.2,166.8z
		 M158.9,167.3c0-0.2,0.1-0.2,0.2-0.2s0.2,0.1,0.2,0.2s-0.1,0.2-0.2,0.2S158.9,167.4,158.9,167.3z M159.4,167.8
		c0-0.2,0.1-0.2,0.2-0.2s0.2,0.1,0.2,0.2s-0.1,0.2-0.2,0.2S159.4,168,159.4,167.8z M159.8,168.6c0-0.2,0.1-0.2,0.2-0.2
		s0.2,0.1,0.2,0.2s-0.1,0.2-0.2,0.2S159.8,168.7,159.8,168.6z M160,169.4c0-0.2,0.1-0.2,0.2-0.2s0.2,0.1,0.2,0.2s-0.1,0.2-0.2,0.2
		S160,169.6,160,169.4z M160.2,170.3c0-0.2,0.1-0.2,0.2-0.2s0.2,0.1,0.2,0.2s-0.1,0.2-0.2,0.2S160.2,170.5,160.2,170.3z
		 M160.3,171.2c0-0.2,0.1-0.2,0.2-0.2s0.2,0.1,0.2,0.2s-0.1,0.2-0.2,0.2S160.3,171.4,160.3,171.2z M160.3,172.1
		c0-0.2,0.1-0.2,0.2-0.2s0.2,0.1,0.2,0.2s-0.1,0.2-0.2,0.2S160.3,172.3,160.3,172.1z M160.3,172.9c0-0.2,0.1-0.2,0.2-0.2
		s0.2,0.1,0.2,0.2s-0.1,0.2-0.2,0.2S160.3,173.1,160.3,172.9z M160.3,173.8c0-0.2,0.1-0.2,0.2-0.2s0.2,0.1,0.2,0.2s-0.1,0.2-0.2,0.2
		S160.3,173.9,160.3,173.8z M160.3,174.7c0-0.2,0.1-0.2,0.2-0.2s0.2,0.1,0.2,0.2s-0.1,0.2-0.2,0.2S160.3,174.9,160.3,174.7z
		 M160.3,175.7c0-0.2,0.1-0.2,0.2-0.2s0.2,0.1,0.2,0.2s-0.1,0.2-0.2,0.2S160.3,175.9,160.3,175.7z"/>
	<path class="st0" d="M164.7,171.3c0,0.1-0.1,0.2-0.2,0.2s-0.2-0.1-0.2-0.2s0.1-0.2,0.2-0.2S164.7,171.1,164.7,171.3z M164.8,170.5
		c0,0.1-0.1,0.2-0.3,0.2c-0.1,0-0.2-0.1-0.2-0.2s0.1-0.2,0.2-0.2S164.8,170.3,164.8,170.5z M164.5,171.8c0.2,0,0.3,0.1,0.3,0.3
		c0,0.1-0.1,0.2-0.2,0.2c-0.2,0-0.3,0-0.3-0.2C164.3,171.9,164.4,171.9,164.5,171.8z M164.6,172.6c0.2,0,0.3,0.1,0.3,0.2
		c0,0.1,0,0.1-0.1,0.2c0,0.1-0.1,0.1-0.2,0.1c-0.2,0-0.2,0-0.2-0.2C164.4,172.7,164.4,172.6,164.6,172.6z M165,169.6
		c0,0.2-0.1,0.2-0.2,0.2c-0.2,0-0.2-0.1-0.2-0.3c0-0.2,0.1-0.3,0.3-0.2C165,169.4,165,169.4,165,169.6z M164.9,173.4
		c0.2,0,0.3,0,0.3,0.2c0,0.2-0.1,0.3-0.2,0.3c-0.2,0-0.3-0.1-0.3-0.3C164.7,173.5,164.8,173.4,164.9,173.4z M165.4,168.8
		c0,0.2-0.1,0.2-0.2,0.2s-0.2-0.1-0.2-0.2s0.1-0.2,0.2-0.2S165.4,168.6,165.4,168.8z M165.3,171.5c-0.2,0-0.2-0.1-0.2-0.2
		s0.1-0.2,0.2-0.2s0.2,0.1,0.2,0.2S165.5,171.5,165.3,171.5z M165.4,174c0.2,0,0.3,0,0.2,0.2c0,0.1,0,0.2-0.2,0.3
		c-0.2,0-0.3-0.1-0.3-0.2C165.2,174.1,165.3,174,165.4,174z M165.9,168c0,0.2-0.1,0.2-0.3,0.2c-0.1,0-0.2-0.1-0.2-0.2
		s0.1-0.2,0.2-0.2S165.9,167.9,165.9,168z M166,174.6c0.2,0,0.2,0,0.2,0.2c0,0.2,0,0.3-0.2,0.3c-0.2,0-0.3-0.1-0.3-0.2
		c0-0.1,0-0.1,0.1-0.2C165.9,174.6,165.9,174.5,166,174.6z M166.2,171.5c-0.2,0-0.2-0.1-0.2-0.2s0.1-0.2,0.2-0.2s0.2,0.1,0.2,0.2
		S166.4,171.5,166.2,171.5z M166.5,167.5c0,0.2-0.1,0.2-0.2,0.2s-0.2-0.1-0.2-0.3c0-0.1,0.1-0.2,0.2-0.2S166.5,167.4,166.5,167.5z
		 M166.9,174.9c0.2,0,0.3,0,0.3,0.2c0,0.1-0.1,0.2-0.3,0.3c-0.2,0-0.3-0.1-0.2-0.2C166.6,175,166.7,174.9,166.9,174.9z M167.3,167
		c0,0.2-0.1,0.2-0.3,0.2c-0.2,0-0.3-0.1-0.2-0.2c0-0.2,0.1-0.2,0.2-0.2S167.3,166.9,167.3,167z M167.3,171.5c-0.2,0-0.2-0.1-0.2-0.2
		s0.1-0.2,0.2-0.2s0.2,0.1,0.2,0.2S167.4,171.5,167.3,171.5z M167.7,175.2c0.2,0,0.2,0.1,0.2,0.2c0,0.2-0.1,0.3-0.2,0.3
		c-0.1,0-0.1,0-0.2-0.1c-0.1,0-0.1-0.1-0.1-0.2C167.5,175.2,167.6,175.2,167.7,175.2z M168.1,166.8c0,0.2-0.1,0.2-0.3,0.2
		c-0.1,0-0.2-0.1-0.2-0.2s0.1-0.2,0.2-0.2S168.1,166.7,168.1,166.8z M168.2,171.5c-0.2,0-0.2-0.1-0.2-0.2s0.1-0.2,0.2-0.2
		s0.2,0.1,0.2,0.2S168.4,171.5,168.2,171.5z M168.5,175.2c0.2,0,0.3,0.1,0.2,0.3c0,0.2-0.1,0.2-0.2,0.2c-0.2,0-0.2-0.1-0.2-0.3
		C168.2,175.4,168.3,175.3,168.5,175.2z M168.5,166.8c0-0.2,0.1-0.2,0.2-0.2s0.2,0.1,0.2,0.2s-0.1,0.2-0.2,0.2
		S168.5,166.9,168.5,166.8z M169.1,171.5c-0.2,0-0.2-0.1-0.2-0.2s0.1-0.2,0.2-0.2s0.2,0.1,0.2,0.2S169.3,171.5,169.1,171.5z
		 M169.4,175.1c0.1,0,0.1,0,0.2,0.1c0,0.1,0.1,0.1,0,0.2c0,0.1,0,0.1-0.1,0.2c-0.1,0-0.1,0.1-0.2,0.1c-0.1,0-0.2-0.1-0.2-0.3
		C169.2,175.2,169.3,175.1,169.4,175.1z M169.3,166.8c0-0.2,0.1-0.2,0.2-0.2s0.2,0.1,0.2,0.2s-0.1,0.2-0.2,0.2
		S169.3,167,169.3,166.8z M170,171.5c-0.2,0-0.2-0.1-0.2-0.2s0.1-0.2,0.2-0.2s0.2,0.1,0.2,0.2S170.1,171.5,170,171.5z M170.3,174.9
		c0.2,0,0.2,0.1,0.2,0.3c0,0.1-0.1,0.2-0.2,0.2c-0.2,0-0.2-0.1-0.2-0.3C170,175,170.1,174.9,170.3,174.9z M170,167
		c0-0.2,0.1-0.2,0.2-0.2s0.2,0.1,0.2,0.2s-0.1,0.2-0.2,0.2S170,167.2,170,167z M170.7,167.5c0-0.2,0.1-0.2,0.2-0.2s0.2,0.1,0.2,0.2
		s-0.1,0.2-0.2,0.2S170.7,167.6,170.7,167.5z M171,174.6c0.2,0,0.2,0.1,0.2,0.3c0,0.1-0.1,0.2-0.3,0.2c-0.2,0-0.2-0.1-0.2-0.3
		C170.7,174.6,170.8,174.5,171,174.6z M171,171c0.2,0,0.3,0.1,0.2,0.3c0,0.2-0.1,0.3-0.3,0.2c-0.1,0-0.2-0.1-0.2-0.3
		C170.8,171,170.8,171,171,171z M171.3,168c0-0.2,0.1-0.2,0.2-0.2s0.2,0.1,0.2,0.2s-0.1,0.2-0.2,0.2S171.3,168.2,171.3,168z
		 M171.6,174.1c0.2,0,0.2,0.1,0.2,0.2c0,0.2-0.1,0.2-0.3,0.2c-0.2,0-0.2-0.1-0.2-0.3C171.3,174.1,171.4,174,171.6,174.1z M171.8,171
		c0.1,0,0.2,0.1,0.2,0.3c0,0.2-0.1,0.3-0.3,0.2c-0.1,0-0.2-0.1-0.2-0.2S171.6,171,171.8,171z M171.8,168.8c0-0.2,0.1-0.2,0.2-0.2
		s0.2,0.1,0.2,0.2s-0.1,0.2-0.2,0.2S171.8,168.9,171.8,168.8z M172.1,173.4c0.2,0,0.2,0.1,0.2,0.2c0,0.2-0.1,0.2-0.3,0.2
		c-0.1,0-0.2-0.1-0.2-0.3C171.8,173.5,171.9,173.4,172.1,173.4z M172.1,169.6c0-0.2,0.1-0.2,0.2-0.2s0.2,0.1,0.2,0.2
		s-0.1,0.2-0.2,0.2S172.1,169.7,172.1,169.6z M172.3,170.5c0-0.2,0.1-0.2,0.2-0.2s0.2,0.1,0.2,0.2s-0.1,0.2-0.2,0.2
		S172.3,170.6,172.3,170.5z M172.3,171.2c0-0.2,0.1-0.2,0.2-0.2s0.2,0.1,0.2,0.2s-0.1,0.2-0.2,0.2S172.3,171.4,172.3,171.2z
		 M172.6,172.8c0.2,0,0.2,0.1,0.2,0.2c0,0.2-0.1,0.2-0.3,0.2c-0.1,0-0.2-0.1-0.2-0.3C172.4,172.8,172.5,172.8,172.6,172.8z"/>
	<path class="st0" d="M176.5,172.9c0-0.2,0.1-0.2,0.2-0.2s0.2,0.1,0.2,0.2s-0.1,0.2-0.2,0.2S176.5,173,176.5,172.9z M177.2,173.7
		c0,0.2-0.1,0.2-0.2,0.2s-0.2-0.1-0.2-0.2s0.1-0.2,0.2-0.2S177.2,173.5,177.2,173.7z M176.7,169.2c0-0.2,0.1-0.2,0.2-0.2
		s0.2,0.1,0.2,0.2s-0.1,0.2-0.2,0.2S176.7,169.4,176.7,169.2z M176.8,168.4c0-0.2,0.1-0.2,0.2-0.2s0.2,0.1,0.2,0.2s-0.1,0.2-0.2,0.2
		S176.8,168.6,176.8,168.4z M176.9,170c0-0.2,0.1-0.2,0.2-0.2s0.2,0.1,0.2,0.2s-0.1,0.2-0.2,0.2S176.9,170.2,176.9,170z
		 M177.6,174.4c0,0.2-0.1,0.2-0.2,0.2s-0.2-0.1-0.2-0.2s0.1-0.2,0.2-0.2S177.6,174.3,177.6,174.4z M177.2,167.7
		c0-0.2,0.1-0.2,0.2-0.2s0.2,0.1,0.2,0.2s-0.1,0.2-0.2,0.2S177.2,167.9,177.2,167.7z M177.5,170.7c0-0.2,0.1-0.2,0.2-0.2
		s0.2,0.1,0.2,0.2s-0.1,0.2-0.2,0.2S177.5,170.8,177.5,170.7z M178.1,175c0,0.2-0.1,0.2-0.2,0.2s-0.2-0.1-0.2-0.2s0.1-0.2,0.2-0.2
		S178.1,174.8,178.1,175z M177.7,167.1c0-0.2,0.1-0.2,0.2-0.2s0.2,0.1,0.2,0.2s-0.1,0.2-0.2,0.2S177.7,167.3,177.7,167.1z
		 M178.1,171.1c0-0.2,0.1-0.2,0.2-0.2s0.2,0.1,0.2,0.2s-0.1,0.2-0.2,0.2S178.1,171.3,178.1,171.1z M178.8,175.4
		c0,0.2-0.1,0.2-0.2,0.2s-0.2-0.1-0.2-0.2s0.1-0.2,0.2-0.2S178.8,175.2,178.8,175.4z M178.4,166.7c0-0.2,0.1-0.2,0.2-0.2
		s0.2,0.1,0.2,0.2s-0.1,0.2-0.2,0.2S178.4,166.9,178.4,166.7z M178.7,171.3c0-0.2,0.1-0.2,0.2-0.2s0.2,0.1,0.2,0.2s-0.1,0.2-0.2,0.2
		S178.7,171.4,178.7,171.3z M179.6,175.6c0,0.2-0.1,0.2-0.2,0.2s-0.2-0.1-0.2-0.2s0.1-0.2,0.2-0.2S179.6,175.5,179.6,175.6z
		 M179.3,166.5c0-0.2,0.1-0.2,0.2-0.2s0.2,0.1,0.2,0.2s-0.1,0.2-0.2,0.2S179.3,166.7,179.3,166.5z M179.6,171.4
		c0-0.2,0.1-0.2,0.2-0.2s0.2,0.1,0.2,0.2s-0.1,0.2-0.2,0.2S179.6,171.6,179.6,171.4z M180.3,175.7c0,0.2-0.1,0.2-0.2,0.2
		s-0.2-0.1-0.2-0.2s0.1-0.2,0.2-0.2S180.3,175.6,180.3,175.7z M180.1,166.5c0-0.2,0.1-0.2,0.2-0.2s0.2,0.1,0.2,0.2s-0.1,0.2-0.2,0.2
		S180.1,166.7,180.1,166.5z M180.5,171.5c0-0.2,0.1-0.2,0.2-0.2s0.2,0.1,0.2,0.2s-0.1,0.2-0.2,0.2S180.5,171.7,180.5,171.5z
		 M181.2,175.7c0,0.2-0.1,0.2-0.2,0.2s-0.2-0.1-0.2-0.2s0.1-0.2,0.2-0.2S181.2,175.6,181.2,175.7z M180.9,166.6
		c0-0.2,0.1-0.2,0.2-0.2s0.2,0.1,0.2,0.2s-0.1,0.2-0.2,0.2S180.9,166.8,180.9,166.6z M181.3,171.7c0-0.2,0.1-0.2,0.2-0.2
		s0.2,0.1,0.2,0.2s-0.1,0.2-0.2,0.2S181.3,171.8,181.3,171.7z M181.6,175.6c0-0.2,0.1-0.2,0.2-0.2s0.2,0.1,0.2,0.2s-0.1,0.2-0.2,0.2
		S181.6,175.8,181.6,175.6z M181.6,166.8c0-0.2,0.1-0.2,0.2-0.2s0.2,0.1,0.2,0.2s-0.1,0.2-0.2,0.2S181.6,167,181.6,166.8z
		 M182.1,171.8c0-0.2,0.1-0.2,0.2-0.2s0.2,0.1,0.2,0.2s-0.1,0.2-0.2,0.2S182.1,172,182.1,171.8z M182.3,167.3c0-0.2,0.1-0.2,0.2-0.2
		s0.2,0.1,0.2,0.2s-0.1,0.2-0.2,0.2S182.3,167.4,182.3,167.3z M182.4,175.4c0-0.2,0.1-0.2,0.2-0.2s0.2,0.1,0.2,0.2s-0.1,0.2-0.2,0.2
		S182.4,175.6,182.4,175.4z M182.9,167.8c0-0.2,0.1-0.2,0.2-0.2s0.2,0.1,0.2,0.2s-0.1,0.2-0.2,0.2S182.9,168,182.9,167.8z
		 M182.9,172.4c0-0.2,0.1-0.2,0.2-0.2s0.2,0.1,0.2,0.2s-0.1,0.2-0.2,0.2S182.9,172.5,182.9,172.4z M183,174.8c0-0.2,0.1-0.2,0.2-0.2
		s0.2,0.1,0.2,0.2s-0.1,0.2-0.2,0.2S183,175,183,174.8z M183.2,173.1c0-0.2,0.1-0.2,0.2-0.2s0.2,0.1,0.2,0.2s-0.1,0.2-0.2,0.2
		S183.2,173.2,183.2,173.1z M183.3,168.6c0-0.2,0.1-0.2,0.2-0.2s0.2,0.1,0.2,0.2s-0.1,0.2-0.2,0.2S183.3,168.7,183.3,168.6z
		 M183.3,173.9c0-0.2,0.1-0.2,0.2-0.2s0.2,0.1,0.2,0.2s-0.1,0.2-0.2,0.2S183.3,174.1,183.3,173.9z"/>
</g>
<g>
	<path class="st1" d="M191.3,96.3c-3.8-3.4-8.8-5.6-14.5-7.2c-5.3-1.5-12.5-2-17.6-1.6c-0.6,0-1.3,0.2-2.2,0.4
		c-0.3-6.1-7.6-10.9-16.5-10.9c-9.2,0-16.6,5-16.6,11.3c0,4.2,3.4,7.9,8.4,9.8c-7.5,4.6-13.5,10.4-13.5,16.9
		c0,5.9,4.4,11.2,10.5,15.5c-1.8,1.8-2.8,4.1-2.8,6.5c0,6.2,7,11.3,15.5,11.3c6.2,0,11.6-2.7,14.1-6.5c1.9,0.4,3.7,0.6,5.3,0.7
		c2.3,0.1,5.3,0.2,8.3-0.1c3.7-0.4,7.5-1.4,10.4-2.4c6.3-2.2,11.1-5.1,14.5-9.7c3-4.1,5-9.7,5-15.2
		C199.6,107.4,196.5,100.9,191.3,96.3z"/>
	<path class="st2" d="M160.1,88.4c-4.2,0-8.1,1-11.6,2.7c0,0,0,0,0-0.1c0-7.1-5.8-12.9-12.9-12.9c-4.9,0-9.2,2.8-11.4,6.9
		c-3-4.9-8.3-8.2-14.5-8.2c-9.4,0-16.9,7.6-16.9,16.9c0,0.4,0,0.7,0.1,1.1c-2.3-0.9-4.7-1.4-7.3-1.4c-11.4,0-20.7,9.3-20.7,20.7
		S74.1,135,85.6,135c0.8,0,1.7-0.1,2.5-0.2c3.8,7.4,11.5,12.5,20.4,12.5c7.3,0,13.8-3.4,17.9-8.7c1.8,3.9,5.7,6.7,10.3,6.7
		c4.9,0,9-3.1,10.6-7.4c3.8,2.1,8.2,3.4,12.9,3.4c14.6,0,26.4-11.8,26.4-26.4C186.5,100.3,174.7,88.4,160.1,88.4z"/>
	<path class="st3" d="M146.2,113.8c-1.1,0-2.1,0.2-3,0.6v-14.3h0.1v-5.8h-0.1h-5.7h-22.4h-5.7v5.8v22.4c0,4.8,3.9,8.7,8.7,8.7
		s8.7-3.9,8.7-8.7s-3.9-8.7-8.7-8.7c-1.1,0-2.1,0.2-3,0.6v-14.3h22.4v22.4c0,4.8,3.9,8.7,8.7,8.7c4.8,0,8.7-3.9,8.7-8.7
		S151,113.8,146.2,113.8z"/>
	<g>
		<circle class="st2" cx="146.2" cy="122.5" r="4.2"/>
	</g>
	<g class="st4">
		<path class="st3" d="M69.7,117.7c-2-7.6,2.4-15,10.6-18.2c6.6-2.6,12.5,0.1,13.7,1.6c0.9,1,5.2,7.6-5.4,14.1
			C78.2,121.6,70.8,122,69.7,117.7z"/>
	</g>
	<g>
		<circle class="st2" cx="118.1" cy="122.5" r="4.2"/>
	</g>
	<path class="st5" d="M99.2,92c-0.8-1.9,1.6-8,6-9.3s5.9-0.6,6.4-0.2c0.5,0.4,2.8,3.3-2.4,6.6S99.9,93.8,99.2,92z"/>
</g>
</svg>
